<svg xmlns="http://www.w3.org/2000/svg" xmlns:xlink="http://www.w3.org/1999/xlink" width="1240" height="552" viewBox="0 0 1240 552">
    <defs>
        <rect id="a" width="384" height="132" rx="4.8"/>
        <path id="c" d="M12 0h407.102c6.628 0 12 5.373 12 12v250c0 6.627-5.372 12-12 12H12c-6.627 0-12-5.373-12-12V12C0 5.373 5.373 0 12 0z"/>
        <filter id="d" width="100.9%" height="101.5%" x="-.5%" y="-.7%" filterUnits="objectBoundingBox">
            <feGaussianBlur in="SourceAlpha" result="shadowBlurInner1" stdDeviation="1.5"/>
            <feOffset dy="1" in="shadowBlurInner1" result="shadowOffsetInner1"/>
            <feComposite in="shadowOffsetInner1" in2="SourceAlpha" k2="-1" k3="1" operator="arithmetic" result="shadowInnerInner1"/>
            <feColorMatrix in="shadowInnerInner1" values="0 0 0 0 0 0 0 0 0 0 0 0 0 0 0 0 0 0 0.5 0"/>
        </filter>
        <path id="e" d="M0 8.958l57.157 19.493 56.598 11.193h58.904l56.174 13.193h57.081l56.273 12.362h58.468l56.531 6.197 57.232 19.34 57.398 6.046 56.915 6.496 56.92 19.317v41.213H0z"/>
        <linearGradient id="g" x1="50%" x2="50%" y1="102.085%" y2="-4.445%">
            <stop offset="0%" stop-opacity="0"/>
            <stop offset="100%" stop-opacity=".4"/>
        </linearGradient>
        <path id="f" d="M0 8.958l57.157 19.493 56.598 11.193h58.904l56.174 13.193h57.081l56.273 12.362h58.468l56.531 6.197 57.232 19.34 57.398 6.046 56.915 6.496 56.92 19.317v41.213H0z"/>
        <path id="h" d="M0 8.958l57.157 19.493 56.598 11.193h58.904l56.174 13.193h57.081l56.273 12.362v98.609H0z"/>
        <filter id="i" width="105.9%" height="134.5%" x="-3%" y="-17.3%" filterUnits="objectBoundingBox">
            <feGaussianBlur in="SourceGraphic" stdDeviation="6.793"/>
        </filter>
        <linearGradient id="k" x1="94.139%" x2="-.967%" y1="51.166%" y2="50.922%">
            <stop offset="0%" stop-color="#00A4FF"/>
            <stop offset="100%" stop-color="#00FFE3"/>
        </linearGradient>
        <linearGradient id="n" x1="97.253%" x2="-.967%" y1="51.163%" y2="50.914%">
            <stop offset="0%" stop-color="#00B9FF"/>
            <stop offset="100%" stop-color="#43FCFF"/>
        </linearGradient>
        <path id="m" d="M15.54 14.717a2.23 2.23 0 0 1-2.22-2.24 2.23 2.23 0 0 1 2.22-2.239 2.23 2.23 0 0 1 2.22 2.24 2.23 2.23 0 0 1-2.22 2.24zm57.077 19.6a2.23 2.23 0 0 1-2.22-2.239 2.23 2.23 0 0 1 2.22-2.24 2.23 2.23 0 0 1 2.22 2.24 2.23 2.23 0 0 1-2.22 2.24zm57.092 11.114a2.23 2.23 0 0 1-2.22-2.24 2.23 2.23 0 0 1 2.22-2.24 2.23 2.23 0 0 1 2.22 2.24 2.23 2.23 0 0 1-2.22 2.24zm57.085 0a2.23 2.23 0 0 1-2.22-2.24 2.23 2.23 0 0 1 2.22-2.24 2.23 2.23 0 0 1 2.22 2.24 2.23 2.23 0 0 1-2.22 2.24zm57.026 13.206a2.23 2.23 0 0 1-2.22-2.24 2.23 2.23 0 0 1 2.22-2.24 2.23 2.23 0 0 1 2.22 2.24 2.23 2.23 0 0 1-2.22 2.24zm56.99 0a2.23 2.23 0 0 1-2.22-2.24 2.23 2.23 0 0 1 2.22-2.24 2.23 2.23 0 0 1 2.22 2.24 2.23 2.23 0 0 1-2.22 2.24zm114.254 12.286a2.23 2.23 0 0 1-2.22-2.24 2.23 2.23 0 0 1 2.22-2.239 2.23 2.23 0 0 1 2.22 2.24 2.23 2.23 0 0 1-2.22 2.24zm57.281 6.274a2.23 2.23 0 0 1-2.22-2.24 2.23 2.23 0 0 1 2.22-2.24 2.23 2.23 0 0 1 2.22 2.24 2.23 2.23 0 0 1-2.22 2.24zm56.984 19.258a2.23 2.23 0 0 1-2.22-2.24 2.23 2.23 0 0 1 2.22-2.239 2.23 2.23 0 0 1 2.22 2.24 2.23 2.23 0 0 1-2.22 2.24zm57.036 6.05a2.23 2.23 0 0 1-2.22-2.24 2.23 2.23 0 0 1 2.22-2.24 2.23 2.23 0 0 1 2.22 2.24 2.23 2.23 0 0 1-2.22 2.24zm57.146 6.517a2.23 2.23 0 0 1-2.22-2.24 2.23 2.23 0 0 1 2.22-2.239 2.23 2.23 0 0 1 2.22 2.24 2.23 2.23 0 0 1-2.22 2.24zm57.051 19.317a2.23 2.23 0 0 1-2.22-2.24 2.23 2.23 0 0 1 2.22-2.24 2.23 2.23 0 0 1 2.22 2.24 2.23 2.23 0 0 1-2.22 2.24z"/>
        <filter id="l" width="102.5%" height="114.5%" x="-1.2%" y="-7.2%" filterUnits="objectBoundingBox">
            <feMorphology in="SourceAlpha" operator="dilate" radius="1.045" result="shadowSpreadOuter1"/>
            <feOffset in="shadowSpreadOuter1" result="shadowOffsetOuter1"/>
            <feGaussianBlur in="shadowOffsetOuter1" result="shadowBlurOuter1" stdDeviation="2.5"/>
            <feComposite in="shadowBlurOuter1" in2="SourceAlpha" operator="out" result="shadowBlurOuter1"/>
            <feColorMatrix in="shadowBlurOuter1" values="0 0 0 0 0 0 0 0 0 0.984313725 0 0 0 0 1 0 0 0 0.2 0"/>
        </filter>
        <linearGradient id="o" x1="153.774%" x2="-19.914%" y1="100%" y2="0%">
            <stop offset="0%" stop-color="#00B9FF"/>
            <stop offset="100%" stop-color="#43FCFF"/>
        </linearGradient>
        <linearGradient id="p" x1="43.856%" x2="56.02%" y1="0%" y2="59.347%">
            <stop offset="0%" stop-color="#EEE"/>
            <stop offset="100%" stop-color="#D8D8D8"/>
        </linearGradient>
        <linearGradient id="q" x1="50%" x2="50%" y1="0%" y2="100%">
            <stop offset="0%" stop-color="#FAD961"/>
            <stop offset="100%" stop-color="#F76B1C"/>
        </linearGradient>
        <path id="r" d="M3.869 2.936c0 2.49-.585 4.784-1.754 6.882C.361 12.966-.286 14.512.167 16.653c.453 2.142 3.412 3.822 7.403 2.14 2.662-1.12 6.005-1.68 10.03-1.68 1.735-.332 2.602-1.398 2.602-3.199 0-2.7-6.406-4.707-6.406-8.115 0-2.271-.13-4.152-.393-5.641L3.87 2.936z"/>
    </defs>
    <g fill="none" fill-rule="evenodd">
        <path d="M0 0h1240v552H0z"/>
        <g transform="translate(717 115)">
            <rect width="432" height="324" fill="#FCFCFC" rx="12"/>
            <path fill="#EAF2F2" d="M12 0h408c6.627 0 12 5.373 12 12v26.4H0V12C0 5.373 5.373 0 12 0zM68.4 70.8c18.75 0 34.04 14.914 34.8 33.6H68.4V70.8z"/>
            <path fill="#F8FAFA" d="M63.6 75.6v33.925h34.77c.02.49.03.98.03 1.475 0 19.55-15.58 35.4-34.8 35.4S28.8 130.55 28.8 111c0-19.55 15.58-35.4 34.8-35.4z" style="mix-blend-mode:multiply"/>
            <circle cx="24" cy="19.2" r="4.8" fill="#EF4C4C"/>
            <circle cx="40.8" cy="19.2" r="4.8" fill="#D8D8D8"/>
            <circle cx="57.6" cy="19.2" r="4.8" fill="#17D671"/>
            <g transform="translate(24 162)">
                <mask id="b" fill="#fff">
                    <use xlink:href="#a"/>
                </mask>
                <use fill="#FFF" xlink:href="#a"/>
                <path fill="#17D3D6" d="M-6 41.138c33.429-4.956 63.564-3.184 90.405 5.318 40.262 12.752 43.608 28.413 99.04 35.64 55.434 7.226 105.204-4.089 143.888 2.774C353.12 89.445 374.01 96.953 390 107.393V170.4H-6V41.138z" mask="url(#b)" opacity=".14"/>
                <path stroke="#33CCE3" stroke-width="3.6" d="M-6 41.115c33.429-4.914 63.564-3.157 90.405 5.271 40.262 12.643 43.608 28.17 99.04 35.334 55.434 7.165 105.204-4.053 143.888 2.75C353.12 89.007 374.01 96.45 390 106.8" mask="url(#b)"/>
                <circle cx="192" cy="82.8" r="7.2" fill="#5FD4EA" stroke="#FFF" stroke-width="3.6" mask="url(#b)"/>
                <circle cx="66" cy="42" r="7.2" fill="#5FD4EA" stroke="#FFF" stroke-width="3.6" mask="url(#b)"/>
                <circle cx="348.3" cy="86.7" r="5.7" fill="#5FD4EA" stroke="#FFF" stroke-width="3.6" mask="url(#b)"/>
            </g>
            <g transform="translate(159.6 75.6)">
                <path fill="#F5F7F7" d="M25.2 2.4h218.4v4.8H25.2z"/>
                <circle cx="4.8" cy="4.8" r="4.8" fill="#E4EDED"/>
                <circle cx="4.8" cy="25.2" r="4.8" fill="#E4EDED"/>
                <circle cx="4.8" cy="45.6" r="4.8" fill="#E4EDED"/>
                <path fill="#F5F7F7" d="M25.2 22.8h218.4v4.8H25.2zM25.2 43.2h218.4V48H25.2z"/>
            </g>
        </g>
        <g transform="translate(694 175)">
            <use fill="#383C3E" xlink:href="#c"/>
            <use fill="#000" filter="url(#d)" xlink:href="#c"/>
        </g>
        <text fill="#FFF" fill-opacity=".87" font-family="NotoSansCJKkr-Bold, Noto Sans CJK KR" font-size="14" font-weight="bold" letter-spacing="-.127" transform="translate(694 175)">
            <tspan x="30" y="40">내 핸드폰의 평균판매금액</tspan>
        </text>
        <text fill="#FFF" fill-opacity=".87" font-family="NotoSansCJKkr-Bold, Noto Sans CJK KR" font-size="26" font-weight="bold" letter-spacing="-.236" transform="translate(694 175)">
            <tspan x="30" y="72">500,000원</tspan>
        </text>
        <g opacity=".2">
            <path fill="#EAF2F2" d="M1063 192c17.241 0 31.3 13.76 32 31h-32v-31z" style="mix-blend-mode:overlay"/>
            <path fill="#F8FAFA" d="M1058 197v31.146h31.973c.018.449.027.9.027 1.354 0 17.95-14.327 32.5-32 32.5-17.673 0-32-14.55-32-32.5s14.327-32.5 32-32.5z" opacity=".1" style="mix-blend-mode:overlay"/>
        </g>
        <g transform="translate(502 292)">
            <g transform="translate(15.223 2.56)">
                <path fill="#FFF" d="M0 163.168h685.65v.64H0v-.64zm0-40.312h685.65v.64H0v-.64zm0-40.952h685.65v.64H0v-.64zm0-40.952h685.65v.64H0v-.64zM0 0h685.65v.64H0V0z" opacity=".05"/>
                <use fill="url(#g)" opacity=".566" style="mix-blend-mode:screen" xlink:href="#f"/>
                <mask id="j" fill="#fff">
                    <use xlink:href="#h"/>
                </mask>
                <use fill="#000" opacity=".05" style="mix-blend-mode:screen" xlink:href="#h"/>
                <path fill="#000" d="M685.448 132.8l-56.855-19.295-56.843-6.489-57.988-6.082-56.712-19.312-56.823-6.185h-58.04l-.135-.014-56.206-12.348h-57.507l-57.022-13.193-57.148.028-57.134-11.233-.081-.021L-.203 19.162l.406-4.411L57.32 34.23l56.497 11.172h57.646l57.443 13.192 57.143.015 56.207 12.348h57.337l57.719 6.239 57.242 19.31 57.334 6.038 56.915 6.496 57.05 19.346-.405 4.412zM228.977 58.611l-.071-.017h-.073l.144.017zm-115.1-13.197l-.06-.012h-.062l.122.012z" filter="url(#i)" mask="url(#j)" opacity=".6" style="mix-blend-mode:darken"/>
            </g>
            <path fill="url(#k)" d="M700.67 128.32l-56.854-19.294-56.843-6.489-57.988-6.082-56.713-19.312-56.822-6.185h-58.04l-.135-.014-56.207-12.349h-57.507L186.54 45.403l-57.148.028-57.134-11.233-.081-.022-57.158-19.493.407-4.411 57.117 19.48 56.496 11.172h57.647l57.443 13.192 57.143.015 56.206 12.348h57.337l57.72 6.238 57.241 19.31 57.334 6.038 56.915 6.497 57.05 19.346z"/>
            <use fill="#000" filter="url(#l)" xlink:href="#m"/>
            <path fill="url(#n)" stroke="#FFF" stroke-width="1.045" d="M15.54 15.24a2.752 2.752 0 0 1-2.743-2.762 2.752 2.752 0 0 1 2.743-2.763 2.752 2.752 0 0 1 2.742 2.763 2.752 2.752 0 0 1-2.742 2.762zm57.077 19.6a2.752 2.752 0 0 1-2.742-2.762 2.752 2.752 0 0 1 2.742-2.762 2.752 2.752 0 0 1 2.743 2.762 2.752 2.752 0 0 1-2.743 2.762zm57.092 11.113a2.752 2.752 0 0 1-2.742-2.762 2.752 2.752 0 0 1 2.742-2.762 2.752 2.752 0 0 1 2.743 2.762 2.752 2.752 0 0 1-2.743 2.762zm57.085 0a2.752 2.752 0 0 1-2.743-2.762 2.752 2.752 0 0 1 2.743-2.762 2.752 2.752 0 0 1 2.742 2.762 2.752 2.752 0 0 1-2.742 2.762zM243.82 59.16a2.752 2.752 0 0 1-2.742-2.762 2.752 2.752 0 0 1 2.742-2.762 2.752 2.752 0 0 1 2.743 2.762 2.752 2.752 0 0 1-2.743 2.762zm56.99 0a2.752 2.752 0 0 1-2.743-2.762 2.752 2.752 0 0 1 2.742-2.762 2.752 2.752 0 0 1 2.743 2.762 2.752 2.752 0 0 1-2.743 2.762zm114.254 12.287a2.752 2.752 0 0 1-2.742-2.762 2.752 2.752 0 0 1 2.742-2.762 2.752 2.752 0 0 1 2.743 2.762 2.752 2.752 0 0 1-2.743 2.762zm57.281 6.273a2.752 2.752 0 0 1-2.742-2.762 2.752 2.752 0 0 1 2.742-2.762 2.752 2.752 0 0 1 2.743 2.762 2.752 2.752 0 0 1-2.743 2.762zm56.984 19.259a2.752 2.752 0 0 1-2.742-2.762 2.752 2.752 0 0 1 2.742-2.762 2.752 2.752 0 0 1 2.743 2.762 2.752 2.752 0 0 1-2.743 2.762zm57.036 6.05a2.752 2.752 0 0 1-2.742-2.763 2.752 2.752 0 0 1 2.742-2.762 2.752 2.752 0 0 1 2.743 2.762 2.752 2.752 0 0 1-2.743 2.762zm57.146 6.517a2.752 2.752 0 0 1-2.743-2.762 2.752 2.752 0 0 1 2.743-2.762 2.752 2.752 0 0 1 2.742 2.762 2.752 2.752 0 0 1-2.742 2.762zm57.051 19.316a2.752 2.752 0 0 1-2.742-2.762 2.752 2.752 0 0 1 2.742-2.762 2.752 2.752 0 0 1 2.743 2.762 2.752 2.752 0 0 1-2.743 2.762z"/>
            <g stroke="#FFF" stroke-width=".522" opacity=".2">
                <path d="M357.73 166.203V2.56"/>
            </g>
            <ellipse cx="357.731" cy="2.559" fill="#17D3D6" rx="2.537" ry="2.559"/>
            <ellipse cx="357.731" cy="166.367" fill="#17D3D6" rx="2.537" ry="2.559"/>
            <path fill="url(#o)" stroke="#FFF" stroke-width="1.829" d="M357.73 72.946c-2.451 0-4.44-2.006-4.44-4.48 0-2.473 1.989-4.479 4.44-4.479 2.453 0 4.44 2.006 4.44 4.48 0 2.473-1.987 4.479-4.44 4.479z"/>
        </g>
        <g transform="translate(1047 352)">
            <circle cx="56" cy="56" r="56" fill="#FFF100"/>
            <circle cx="56" cy="56" r="43" fill="#FFF100" fill-opacity=".6" style="mix-blend-mode:multiply"/>
            <path fill="#FFF" fill-rule="nonzero" d="M72.458 61.694L68.793 71h-5.296l-6.81-17.288L49.878 71h-5.296l-3.665-9.306H34v-5.541h4.734l-3.609-9.164L40.421 45l6.81 17.288L54.038 45h5.297l6.809 17.288L72.954 45l5.296 1.99-3.61 9.163H79v5.541z"/>
        </g>
        <g transform="translate(660 315)">
            <circle cx="39" cy="22" r="22" fill="#33CCE3"/>
            <circle cx="39" cy="22" r="15" fill="#FFF"/>
            <path fill="#A3A3A3" d="M30.543 142.487h1.753c.904 0 1.638.733 1.638 1.638h-5.029c0-.905.734-1.638 1.638-1.638zM49.88 142.487h-1.753c-.904 0-1.637.733-1.637 1.638h5.028c0-.905-.734-1.638-1.638-1.638z"/>
            <path fill="url(#p)" d="M29.589 97.396V142.7h3.413l2.576-22.504L39 105l4.113 15.196L47.22 142.7h2.852l-1.008-22.504-.624-26.794-18.852 3.994z"/>
            <ellipse cx="42.516" cy="144.458" fill="#D8D8D8" opacity=".159" rx="42.5" ry="4.5"/>
            <path fill="url(#q)" d="M37.417 67.124v-.25l4.6-.44 5.494-9.175-.003-11.883 3.406.375c1.438 6.095 1.859 10.726 1.263 13.892-.596 3.167-2.419 7.2-5.469 12.101l2.39 25.642H28.742l2.076-25.134c-3.05-4.901-4.873-8.935-5.469-12.101-.596-3.167-.175-7.798 1.263-13.893l3.406-.375-.003 11.884 5.493 9.174 1.91.183z"/>
            <rect width="9.758" height="10.978" x="33.758" y="58.354" fill="#806262" rx="4.32"/>
            <g transform="translate(30.099 62.736)">
                <mask id="s" fill="#fff">
                    <use xlink:href="#r"/>
                </mask>
                <use fill="#695353" xlink:href="#r"/>
                <path fill="#806262" d="M3.308.829c-.457 2.494-1.27 4.79-2.44 6.889-1.754 3.147.039 4.693.492 6.835.453 2.141 3.411 3.821 7.403 2.14 2.661-1.12 6.005-1.681 10.03-1.681 1.735-.331 2.602-1.397 2.602-3.198 0-2.701-6.406-4.707-6.406-8.115 0-2.272-.131-4.153-.393-5.642L3.308.83z" mask="url(#s)"/>
            </g>
            <path fill="#FFE0CC" d="M47.74 45.417l-.67-3.13.373-2.209 2.991.971-.262 4.75zM29.7 45.917l.67-3.13-.372-2.209-2.992.971.262 4.75z"/>
        </g>
    </g>
</svg>
