<svg xmlns="http://www.w3.org/2000/svg" xmlns:xlink="http://www.w3.org/1999/xlink" width="1240" height="552" viewBox="0 0 1240 552">
    <defs>
        <path id="a" d="M12 0h447.944c6.628 0 12 5.373 12 12v98.733H0V12C0 5.373 5.373 0 12 0z"/>
        <filter id="c" width="111.3%" height="113.3%" x="-5.7%" y="-6.7%" filterUnits="objectBoundingBox">
            <feGaussianBlur in="SourceGraphic" stdDeviation="1"/>
        </filter>
        <filter id="d" width="111.6%" height="113.3%" x="-5.8%" y="-6.7%" filterUnits="objectBoundingBox">
            <feGaussianBlur in="SourceGraphic" stdDeviation="1"/>
        </filter>
        <filter id="e" width="111.3%" height="113.3%" x="-5.7%" y="-6.7%" filterUnits="objectBoundingBox">
            <feGaussianBlur in="SourceGraphic" stdDeviation="1"/>
        </filter>
        <filter id="f" width="111.3%" height="113.3%" x="-5.7%" y="-6.7%" filterUnits="objectBoundingBox">
            <feGaussianBlur in="SourceGraphic" stdDeviation="1"/>
        </filter>
        <filter id="g" width="111.6%" height="113.3%" x="-5.8%" y="-6.7%" filterUnits="objectBoundingBox">
            <feGaussianBlur in="SourceGraphic" stdDeviation="1"/>
        </filter>
        <filter id="h" width="111.6%" height="113.3%" x="-5.8%" y="-6.7%" filterUnits="objectBoundingBox">
            <feGaussianBlur in="SourceGraphic" stdDeviation="1"/>
        </filter>
        <filter id="i" width="111.6%" height="113.3%" x="-5.8%" y="-6.7%" filterUnits="objectBoundingBox">
            <feGaussianBlur in="SourceGraphic" stdDeviation="1"/>
        </filter>
        <filter id="j" width="111.6%" height="113.3%" x="-5.8%" y="-6.7%" filterUnits="objectBoundingBox">
            <feGaussianBlur in="SourceGraphic" stdDeviation="1"/>
        </filter>
        <filter id="k" width="111.6%" height="113.3%" x="-5.8%" y="-6.7%" filterUnits="objectBoundingBox">
            <feGaussianBlur in="SourceGraphic" stdDeviation="1"/>
        </filter>
        <path id="l" d="M68.627 96.618c.091-2.36-.88-4.628-2.632-6.142a7.413 7.413 0 0 0-4.9-1.788h-14.73v40.687h29.97v8.01c0 .959-.369 1.88-1.025 2.557A3.435 3.435 0 0 1 72.837 141H40.495c-.927 0-1.816-.38-2.472-1.058A3.678 3.678 0 0 1 37 137.385v-54.77c0-.959.368-1.879 1.023-2.557A3.435 3.435 0 0 1 40.495 79h20.75c6.776-.002 12.886 4.219 15.48 10.695 2.593 6.476 1.158 13.93-3.635 18.885l-3.746 3.875 6.99 7.232H55.731V98.375l6.99 7.229 3.64-3.765a7.977 7.977 0 0 0 2.266-5.221zm-5.27 37.286c0-.62-.655-1.12-1.464-1.12h-8.786c-.809 0-1.464.5-1.464 1.12 0 .618.655 1.12 1.464 1.12h8.786c.809 0 1.464-.502 1.464-1.12z"/>
        <linearGradient id="m" x1="50%" x2="56.826%" y1="100%" y2="0%">
            <stop offset="0%" stop-color="#CCC"/>
            <stop offset="100%" stop-color="#A9A9A9"/>
        </linearGradient>
        <linearGradient id="n" x1="44.117%" x2="55.764%" y1="0%" y2="59.347%">
            <stop offset="0%" stop-color="#EEE"/>
            <stop offset="100%" stop-color="#D8D8D8"/>
        </linearGradient>
        <linearGradient id="o" x1="100%" x2="0%" y1="89.505%" y2=".473%">
            <stop offset="0%" stop-color="#1DCAEC"/>
            <stop offset="100%" stop-color="#17D3D6"/>
        </linearGradient>
        <linearGradient id="p" x1="86.768%" x2="13.232%" y1="89.883%" y2="0%">
            <stop offset="0%" stop-color="#3260C3"/>
            <stop offset="100%" stop-color="#17D3D6"/>
        </linearGradient>
        <linearGradient id="q" x1="25.53%" x2="64.376%" y1="0%" y2="114.61%">
            <stop offset="0%" stop-color="#AA54D0"/>
            <stop offset="100%" stop-color="#712AA3"/>
        </linearGradient>
        <linearGradient id="r" x1="50%" x2="53.697%" y1="100%" y2="0%">
            <stop offset="0%" stop-color="#CCC"/>
            <stop offset="100%" stop-color="#A9A9A9"/>
        </linearGradient>
        <linearGradient id="s" x1="-3.822%" x2="72.072%" y1="78.774%" y2="37.385%">
            <stop offset="0%" stop-color="#8732C3"/>
            <stop offset="65.944%" stop-color="#712AA3"/>
            <stop offset="100%" stop-color="#712AA3"/>
        </linearGradient>
        <linearGradient id="t" x1="36.413%" x2="63.312%" y1="0%" y2="59.347%">
            <stop offset="0%" stop-color="#EEE"/>
            <stop offset="100%" stop-color="#D8D8D8"/>
        </linearGradient>
    </defs>
    <g fill="none" fill-rule="evenodd">
        <path d="M0 0h1240v552H0z"/>
        <g>
            <g transform="translate(768 77)">
                <ellipse cx="267" cy="393.5" fill="#D8D8D8" opacity=".23" rx="45" ry="5.5"/>
                <path fill="#F3F8F8" fill-rule="nonzero" d="M.391 92.501h472V367h-472z"/>
                <path fill="#FFF" d="M290.369 222.002h65.362v141.834h-65.362zM216.463 222.002h65.362v141.834h-65.362z"/>
                <mask id="b" fill="#fff">
                    <use xlink:href="#a"/>
                </mask>
                <use fill="#8732C3" xlink:href="#a"/>
                <path fill="#AECA38" d="M200.432 44.293h272.416a8.437 8.437 0 0 1 0 16.874H200.432a8.437 8.437 0 0 1 0-16.874z" mask="url(#b)"/>
                <rect width="60.181" height="16.874" x="-11.614" y="44.293" fill="#AECA38" mask="url(#b)" rx="8.437"/>
                <path fill="#FEFEFE" d="M161.846 31.57c-3.64 0-6.608 3.074-6.608 6.849v15.815c0 6.533-4.081 11.403-9.488 11.403-5.413 0-9.494-4.87-9.494-11.403V38.419c0-3.843-2.823-6.85-6.431-6.85-3.641 0-6.609 3.075-6.609 6.85v16.11c0 14.036 9.687 24.32 22.534 24.32 6.23 0 11.983-2.534 16.202-7.134 4.193-4.575 6.503-10.782 6.503-17.481V38.419c0-3.775-2.962-6.85-6.609-6.85M110.01 60.704c-1.875 0-3.646.684-4.974 1.928-2.119 1.976-4.935 3.066-7.937 3.066-3 0-5.823-1.09-7.941-3.069-2.2-2.058-3.465-4.76-3.465-7.415 0-2.655 1.265-5.356 3.465-7.417 2.124-1.985 4.94-3.072 7.941-3.072 2.996 0 5.818 1.087 7.937 3.072 1.328 1.244 3.1 1.923 4.975 1.923 1.881 0 3.652-.679 4.98-1.923 2.742-2.566 2.742-6.738 0-9.305-4.778-4.461-11.136-6.922-17.892-6.922-6.76 0-13.113 2.46-17.892 6.922-9.864 9.221-9.864 24.22 0 33.442 4.773 4.459 11.126 6.914 17.892 6.914 6.767 0 13.12-2.455 17.893-6.914 2.74-2.566 2.74-6.739 0-9.305-1.334-1.241-3.1-1.925-4.981-1.925" mask="url(#b)"/>
                <path fill="#F3F8F8" d="M68.627 110.733H473v25.31H68.627z" mask="url(#b)" style="mix-blend-mode:multiply"/>
                <g fill="#FFF" mask="url(#b)">
                    <path d="M290.369 222.002h65.362v141.834h-65.362zM216.463 222.002h65.362v141.834h-65.362z"/>
                </g>
                <g fill-rule="nonzero">
                    <g fill="#E5E5E5" opacity=".268">
                        <path d="M0 0h53.052v35.625C44.168 41.875 35.312 45 26.482 45 17.652 45 8.825 41.875 0 35.625V0z" filter="url(#c)" transform="translate(0 128)"/>
                        <path d="M209.996 0h51.947v35.625c-8.699 6.25-17.37 9.375-26.016 9.375-8.646 0-17.29-3.125-25.93-9.375V0z" filter="url(#d)" transform="translate(0 128)"/>
                        <path d="M104.998 0h53.052v35.625C149.166 41.875 140.31 45 131.48 45c-8.83 0-17.657-3.125-26.482-9.375V0z" filter="url(#e)" transform="translate(0 128)"/>
                        <path d="M313.89 0h53.051v35.625c-8.884 6.25-17.74 9.375-26.57 9.375-8.83 0-17.656-3.125-26.482-9.375V0z" filter="url(#f)" transform="translate(0 128)"/>
                        <path d="M53.052 0h51.946v35.625C96.3 41.875 87.628 45 78.982 45c-8.645 0-17.289-3.125-25.93-9.375V0z" filter="url(#g)" transform="translate(0 128)"/>
                        <path d="M261.943 0h51.946v35.625C305.191 41.875 296.52 45 287.873 45c-8.645 0-17.289-3.125-25.93-9.375V0z" filter="url(#h)" transform="translate(0 128)"/>
                        <path d="M158.05 0h51.946v35.625C201.298 41.875 192.626 45 183.98 45c-8.645 0-17.289-3.125-25.93-9.375V0z" filter="url(#i)" transform="translate(0 128)"/>
                        <path d="M366.941 0h51.946v35.625C410.19 41.875 401.517 45 392.871 45c-8.645 0-17.289-3.125-25.93-9.375V0z" filter="url(#j)" transform="translate(0 128)"/>
                        <path d="M419.302 0h51.946v35.625C462.55 41.875 453.878 45 445.232 45c-8.645 0-17.289-3.125-25.93-9.375V0z" filter="url(#k)" transform="translate(0 128)"/>
                    </g>
                    <path fill="#C6E640" d="M0 111h52.992v35.625c-8.874 6.25-17.72 9.375-26.54 9.375S8.815 152.875 0 146.625V111zM209.76 111h51.887v35.625c-8.689 6.25-17.35 9.375-25.987 9.375-8.636 0-17.27-3.125-25.9-9.375V111zM104.88 111h52.991v35.625c-8.873 6.25-17.72 9.375-26.54 9.375-8.819 0-17.636-3.125-26.451-9.375V111zM313.535 111h52.992v35.625c-8.874 6.25-17.72 9.375-26.54 9.375s-17.637-3.125-26.452-9.375V111z"/>
                    <path fill="#FFF" d="M366.527 111h52.36v34.833c-8.767 6.111-17.509 9.167-26.223 9.167-8.715 0-17.427-3.056-26.137-9.167V111z"/>
                    <path fill="#C6E640" d="M418.887 111h52.361v34.833c-8.767 6.111-17.509 9.167-26.223 9.167-8.715 0-17.427-3.056-26.138-9.167V111z"/>
                    <path fill="#FFF" d="M52.992 111h51.888v35.625C96.19 152.875 87.529 156 78.893 156s-17.27-3.125-25.901-9.375V111zM261.647 111h51.888v35.625c-8.689 6.25-17.351 9.375-25.987 9.375s-17.27-3.125-25.901-9.375V111zM157.871 111h51.888v35.625c-8.688 6.25-17.35 9.375-25.987 9.375-8.635 0-17.269-3.125-25.9-9.375V111z"/>
                </g>
            </g>
            <g transform="translate(732 219)">
                <path fill="#17D3D6" d="M10 0h95c5.523 0 10 4.477 10 10v204c0 5.523-4.477 10-10 10H10c-5.523 0-10-4.477-10-10V10C0 4.477 4.477 0 10 0z"/>
                <path fill="#FFF" d="M7.956 28h97.088c1.08 0 1.956.876 1.956 1.956v160.088c0 1.08-.876 1.956-1.956 1.956H7.956A1.956 1.956 0 0 1 6 190.044V29.956C6 28.876 6.876 28 7.956 28zM51.126 15.651h20.86v2.604h-20.86v-2.604zm-7.17 3.255A1.954 1.954 0 0 1 42 16.953c0-1.079.876-1.953 1.956-1.953s1.955.874 1.955 1.953a1.954 1.954 0 0 1-1.955 1.953z"/>
                <rect width="11" height="11" x="52" y="202" fill="#FFF100" rx="2.2"/>
                <use fill="#17D3D6" fill-rule="nonzero" xlink:href="#l"/>
            </g>
            <path fill="#F3F8F8" d="M748 411h13v32h-13z" style="mix-blend-mode:multiply"/>
            <g transform="translate(1125 312)">
                <path fill="#7B716D" d="M54.963 1.691h3.382v94.716h-3.382zM60.95 99.79h5.006L40.52 137h-5.005z"/>
                <path fill="#7B716D" d="M53.204 99.79H48.2L73.634 137h5.006zM93.86 98.099c0 .934-.757 1.691-1.691 1.691h-71.03a1.691 1.691 0 0 1 0-3.383h71.03c.934 0 1.691.758 1.691 1.692z"/>
                <path fill="#8732C3" d="M56.81 0l52.711 35.239a2 2 0 0 1-1.111 3.662H6.46a2 2 0 0 1-1.13-3.65L56.81 0z"/>
                <path fill="#712AA3" d="M57.287 0l17.97 38.901H39.743z"/>
                <path fill="#9136D1" d="M56.747.846L84.559 19.45H29.596z"/>
                <ellipse cx="55.147" cy="138.664" fill="#D8D8D8" opacity=".23" rx="43.676" ry="5.336"/>
            </g>
            <path fill="#FFF100" d="M662.3 356h81.889a3.911 3.911 0 0 1 3.911 3.911v80.178a3.911 3.911 0 0 1-3.911 3.911H662.3v-88z"/>
            <path fill="#FFE300" d="M673 356h-43.089a3.911 3.911 0 0 0-3.911 3.911v80.178a3.911 3.911 0 0 0 3.911 3.911H673v-88z"/>
            <path fill="#FFF100" d="M705.2 356h8.8v88h-8.8z" style="mix-blend-mode:multiply"/>
            <g>
                <g transform="translate(663 273)">
                    <path fill="url(#m)" d="M14.476 43.943l-1.06 14.824L2.622 75.063l2.427 1.758L20.381 60.62l5.06-16.677z"/>
                    <path fill="#A3A3A3" d="M6.553 78.897c.793.714 1.857 1.568.97 2.246-.364.278-3.606-1.637-4.654-2.478-.411-.33-.73-.572-1.106-.848-.376-.309-.47-.618-.284-.928l1.166-1.84 2.12 1.506c.02.019.808 1.461 1.788 2.342z"/>
                    <path fill="url(#n)" d="M30.062 43.943l-3.885 17.144-5.792 18.3H16.4l2.487-18.3-3.236-17.144z"/>
                    <path fill="#A3A3A3" d="M22.569 80.858c1.044.223 2.207-.066 2.215 1.248.002.328-2.827.29-6.342.214-.441-.01-.894-.018-1.353-.026-.48-.08-.718-.3-.712-.662l.086-2.245h3.221c.55.121 1.594 1.195 2.885 1.47z"/>
                    <path fill="url(#o)" d="M17.735 9.767c2.878 6.14 5.729 9.817 8.55 11.03a54.073 54.073 0 0 0 8.514 2.865l.576-2.293c-2.308-1.043-4.955-2.6-7.94-4.67-1.434-2.681-3.172-6.212-5.216-10.591l-3.639-.003-.845 3.662z" transform="rotate(-80 26.555 14.884)"/>
                    <path fill="url(#p)" d="M28.759 22.933c1.523 5.181 2.284 12.26 2.284 21.238H12.488l4.816-27.473c.513-.332 3.243-.343 8.19-.03 4.25-1.176 7.801-2.23 10.655-3.163 3.172-3.202 5.645-6.102 7.417-8.698l2.678 1.198a67.101 67.101 0 0 1-5.337 9.787c-1.803 2.75-5.852 5.13-12.148 7.141z"/>
                    <rect width="7.501" height="9.959" x="18.887" y="6.224" fill="#FFE0CC" rx="3"/>
                    <path fill="#FFE0CC" d="M38.465 3.962l-.391 1.613-1.416 2.762-1.713-.792-.399-2.003 1.596-2.592zM47.902 1.674l-.392 1.612-1.416 2.762-1.713-.791-.398-2.003L45.578.66z"/>
                    <path fill="#695656" d="M26.47 8.727c-.281.351-.68.896-1.195 1.633V15c-.433 1.28-1.781 1.92-4.046 1.92h-3.974v-5.997c.183-3.31 1.804-4.966 4.86-4.966 2.51 0 3.96.923 4.354 2.77z"/>
                    <path fill="url(#q)" d="M11.965 43.943c3.012-18.015 4.776-27.023 5.29-27.023h7.53c2.391 2.668 3.752 4.784 4.084 6.35.497 2.347 3.155 18.093 2.174 21.23l-19.078-.557z"/>
                </g>
            </g>
            <g>
                <g transform="translate(919 371)">
                    <circle cx="52" cy="52" r="52" fill="#FFF100"/>
                    <circle cx="52" cy="52" r="40" fill="#FFF100" fill-opacity=".6" style="mix-blend-mode:multiply"/>
                    <path fill="#FFF" fill-rule="nonzero" d="M66.752 57.267L63.364 66h-4.896l-6.295-16.224L45.88 66h-4.896l-3.389-8.733H31.2v-5.2h4.377l-3.337-8.6 4.896-1.867 6.295 16.224L49.725 41.6h4.896l6.295 16.224L67.211 41.6l4.896 1.867-3.337 8.6h4.03v5.2z"/>
                </g>
                <g transform="matrix(-1 0 0 1 1080 382)">
                    <path fill="url(#r)" d="M18.925 31.072v6.196L33.4 54.48v17.034h4.276l1.906-18.337-7.996-22.105z" transform="translate(0 11.338)"/>
                    <path fill="#712AA3" d="M32.453 33.229l11.183 2.34.866-4.07-12.05-6.373z"/>
                    <path fill="url(#s)" d="M31.922 2.002c2.798 5.938 5.2 10.778 7.205 14.52 4.513 3.115 8.515 5.457 12.006 7.027l-.874 3.454a81.91 81.91 0 0 1-12.874-4.308c-1.536-.656-3.077-1.793-4.623-3.411-.237 3.556-.655 7.485-1.253 11.788H12.446l7.625-30.5c3.18-.073 6.993-.073 11.438 0 .149.454.286.93.413 1.43z" transform="translate(0 11.338)"/>
                    <path fill="url(#t)" d="M29.788 31.072c.403 8.628-2.843 17.441-9.738 26.441-4.236 5.529-8.93 11.237-14.081 17.125L2.903 72.73l10.405-17.348c1.403-7.214 2.015-12.85 1.836-16.905-1.874-3.411-2.811-5.88-2.811-7.406h17.455z" transform="translate(0 11.338)"/>
                    <path fill="#A3A3A3" d="M40.284 84.504c1.168.25 2.468-.074 2.477 1.401.002.368-3.16.245-7.088.16l-1.513-.029c-.537-.09-.802-.338-.795-.743l.095-2.44h4.087c.03.006 1.295 1.342 2.737 1.65zM7.277 88.374c.886.8 2.097 0 2.097 1.443 0 .38-1.638.362-2.985.273-1.079-.071-2.058-1.033-3.229-1.977a33.82 33.82 0 0 0-1.237-.952c-.42-.346-.525-.693-.317-1.04l1.303-2.067 3.06 1.88c.022.021.213 1.45 1.308 2.44z"/>
                    <path fill="#8732C3" d="M31.5 11.338l1.865 20.1L31.5 42.41H11.978l8.093-31.073h5.808z"/>
                    <rect width="8.292" height="11.056" x="24.313" y=".282" fill="#FFE0CC" rx="3.3"/>
                    <path fill="#FFE0CC" d="M23.667 5.81h4.792v6.088h-4.792z"/>
                    <path fill="#646D6D" d="M25.949.196h2.51v4.232a6.91 6.91 0 0 1-6.91 6.91V4.596a4.4 4.4 0 0 1 4.4-4.4z"/>
                    <path fill="#646D6D" d="M27.077 4.342h1.382A4.146 4.146 0 0 0 32.605.196h-5.528v4.146z"/>
                    <path fill="#FFE0CC" d="M50.9 35.335l1.838.115 3.292 1.01-.537 2.017-2.114.82-3.14-1.238z"/>
                </g>
                <path stroke="#AECA38" d="M1051.541 393.898c-1.714 9.116-1.253 19.287 1.382 30.513"/>
                <path stroke="#979797" d="M1048.21 393.856l-.815 19.935 1.096 10.62h19.53l-8.092-30.513z"/>
            </g>
        </g>
    </g>
</svg>
